<svg width="144" height="145" viewBox="0 0 144 145" fill="none" xmlns="http://www.w3.org/2000/svg">
<path d="M58.49 5.80191C70.94 3.34191 84.08 4.31191 95.94 8.90191C115.3 16.0719 130.82 32.7519 136.6 52.5719C139.6 62.3219 140.26 72.8019 138.58 82.8619C135.85 100.262 125.87 116.342 111.59 126.632C99.39 135.552 84.1 140.122 69.02 139.412C50.71 138.682 32.83 130.092 20.93 116.112C4.59 97.6619 -0.129996 69.8919 9.26 47.1019C17.29 26.1719 36.54 10.2019 58.49 5.80191ZM49.91 17.8619C31.75 25.2519 17.57 42.1019 14.41 61.5819C12.07 74.3419 14.19 87.8719 20.26 99.3419C29.56 117.332 48.84 129.562 69.05 130.392C80.77 131.002 92.66 127.972 102.64 121.772C116.81 113.182 126.95 98.2119 129.59 81.8519C131.59 70.8819 130.14 59.3719 125.81 49.1219C118.36 31.1619 101.31 17.5819 82.12 14.4219C71.36 12.4419 60 13.6319 49.91 17.8619Z" fill="black"/>
<path d="M49.9117 17.8618C60.0017 13.6318 71.3617 12.4418 82.1217 14.4218C101.312 17.5818 118.362 31.1618 125.812 49.1218C130.142 59.3718 131.592 70.8818 129.592 81.8518C126.952 98.2118 116.812 113.182 102.642 121.772C92.6617 127.972 80.7717 131.002 69.0517 130.392C48.8417 129.562 29.5617 117.332 20.2617 99.3418C22.2517 98.7618 24.9717 99.2418 26.1117 97.0818C27.4217 94.5818 26.4417 91.6418 27.1517 89.0018C27.5817 85.8718 31.6417 84.4018 31.4617 81.0418C31.6117 78.6318 29.3917 76.4618 27.0017 76.5018C23.8817 76.6118 21.3017 72.8618 22.9017 70.0618C23.5517 68.6618 24.9917 68.0218 26.2217 67.2318C27.4217 69.4918 28.8917 72.5418 32.0317 71.8518C35.4117 71.8018 35.7517 68.0418 36.7417 65.6518C40.2517 63.7518 40.5317 68.4518 41.5317 70.5818C43.8717 72.6318 44.8917 75.4818 45.7617 78.3718C46.6717 78.7318 47.6017 78.7718 48.5317 78.4818C49.9217 76.6618 49.5517 73.9418 51.4117 72.4018C53.4917 70.7418 53.7717 68.0518 54.7217 65.7418C55.7717 64.9618 57.9617 65.0318 58.1817 66.6318C58.6617 68.6418 59.1817 70.7518 60.8617 72.1118C62.6817 73.7118 62.7317 76.2818 63.7117 78.3518C65.0217 79.0618 67.0017 78.7618 67.4317 77.1218C67.7317 73.4218 67.0517 69.6418 67.7717 65.9918C68.9817 65.4418 70.2517 65.0318 71.4717 64.4918C72.3917 61.9418 71.3717 58.9618 72.5017 56.3618C74.4017 53.1318 79.2617 54.7318 80.9317 51.0918C81.6617 55.3518 76.0217 56.9318 76.4817 61.0818C76.7517 62.9618 78.9917 63.2118 80.3717 62.4318C80.8817 59.0218 82.8817 56.4018 85.0717 53.8718C86.7717 51.0518 83.9317 48.5018 81.1517 49.8418C81.1117 46.1718 77.7017 45.0018 74.7117 44.3218C74.5917 43.7718 74.3417 42.6618 74.2117 42.1118C75.4817 39.5818 78.7517 40.5718 81.0017 40.4918C83.4317 40.3818 85.3317 42.4918 85.5117 44.8218C85.4617 46.8118 88.1117 48.2118 89.4817 46.5118C90.4017 43.5918 90.4217 40.0818 93.1917 38.1318C95.7617 35.5818 99.5417 36.4618 102.702 35.5118C104.242 34.4118 103.402 31.7018 101.632 31.5418C98.7517 31.3318 95.8717 31.6418 93.0017 31.3518C90.3517 30.4418 89.1117 27.0718 86.0417 27.1118C79.4217 26.4618 72.7317 27.1918 66.1017 26.7318C63.8617 26.3818 62.7017 24.1718 61.0917 22.8218C58.1217 19.8218 54.0717 18.1918 49.9117 17.8618ZM72.6117 76.4818C74.9217 76.9718 76.9317 74.8818 76.5017 72.5818C73.9217 70.8018 70.7517 73.9018 72.6117 76.4818ZM60.2617 87.7518C63.6817 92.0418 71.7417 89.5918 71.8317 83.9818C72.5017 81.7618 70.1717 80.4818 68.3217 81.3518C67.2317 82.6818 67.4717 85.9818 64.9817 85.5018C62.3117 85.5718 63.6617 81.0118 60.9517 81.1018C57.2217 81.0718 58.2917 86.0818 60.2617 87.7518ZM76.5317 84.0518C77.5017 86.2218 80.2117 84.9718 81.6317 86.4518C83.8217 88.2018 86.3117 91.1018 89.4117 89.4318C90.2617 88.1418 90.0217 85.5418 88.0517 85.6018C85.4517 85.6518 83.7117 83.6218 81.8717 82.1118C80.1617 80.3618 75.6717 80.7918 76.5317 84.0518ZM79.4917 90.4918C78.8617 91.6318 78.4917 92.8918 78.0517 94.1118C76.4917 94.7818 74.6417 94.2718 73.1417 95.1418C69.2717 96.6618 66.8517 100.972 67.5617 105.072C69.9417 110.212 76.9317 105.962 80.3217 109.682C81.8717 110.712 83.2417 112.962 85.3717 112.352C85.4717 108.872 89.7817 107.482 89.8517 104.052C89.7517 101.582 90.3117 98.9618 89.3917 96.6118C88.2117 94.6618 85.9117 94.5118 83.9217 94.1118C83.4717 92.8918 83.1317 91.6318 82.5217 90.4818C81.5117 89.9718 80.5017 89.9718 79.4917 90.4918ZM29.4017 95.3018C29.0017 96.7818 26.2117 96.9518 27.3117 98.8018C29.9117 100.062 33.5717 95.1018 30.0317 94.4118L29.4017 95.3018ZM98.3517 108.272C96.8817 110.412 94.0617 112.142 94.5117 115.082C94.6517 116.942 97.1517 117.332 98.4117 116.372C99.0717 114.172 99.3817 111.802 101.232 110.202C103.032 108.522 104.852 105.182 102.032 103.522C98.9717 102.792 99.0217 106.332 98.3517 108.272Z" fill="#0078D7"/>
<path d="M14.41 61.5819C17.57 42.1019 31.75 25.2519 49.91 17.8619C54.07 18.1919 58.12 19.8219 61.09 22.8219C62.7 24.1719 63.86 26.3819 66.1 26.7319C72.73 27.1919 79.42 26.4619 86.04 27.1119C89.11 27.0719 90.35 30.4419 93 31.3519C95.87 31.6419 98.75 31.3319 101.63 31.5419C103.4 31.7019 104.24 34.4119 102.7 35.5119C99.54 36.4619 95.76 35.5819 93.19 38.1319C90.42 40.0819 90.4 43.5919 89.48 46.5119C88.11 48.2119 85.46 46.8119 85.51 44.8219C85.33 42.4919 83.43 40.3819 81 40.4919C78.75 40.5719 75.48 39.5819 74.21 42.1119C74.34 42.6619 74.59 43.7719 74.71 44.3219C77.7 45.0019 81.11 46.1719 81.15 49.8419C83.93 48.5019 86.77 51.0519 85.07 53.8719C82.88 56.4019 80.88 59.0219 80.37 62.4319C78.99 63.2119 76.75 62.9619 76.48 61.0819C76.02 56.9319 81.66 55.3519 80.93 51.0919C79.26 54.7319 74.4 53.1319 72.5 56.3619C71.37 58.9619 72.39 61.9419 71.47 64.4919C70.25 65.0319 68.98 65.4419 67.77 65.9919C67.05 69.6419 67.73 73.4219 67.43 77.1219C67 78.7619 65.02 79.0619 63.71 78.3519C62.73 76.2819 62.68 73.7119 60.86 72.1119C59.18 70.7519 58.66 68.6419 58.18 66.6319C57.96 65.0319 55.77 64.9619 54.72 65.7419C53.77 68.0519 53.49 70.7419 51.41 72.4019C49.55 73.9419 49.92 76.6619 48.53 78.4819C47.6 78.7719 46.67 78.7319 45.76 78.3719C44.89 75.4819 43.87 72.6319 41.53 70.5819C40.53 68.4519 40.25 63.7519 36.74 65.6519C35.75 68.0419 35.41 71.8019 32.03 71.8519C28.89 72.5419 27.42 69.4919 26.22 67.2319C24.99 68.0219 23.55 68.6619 22.9 70.0619C21.3 72.8619 23.88 76.6119 27 76.5019C29.39 76.4619 31.61 78.6319 31.46 81.0419C31.64 84.4019 27.58 85.8719 27.15 89.0019C26.44 91.6419 27.42 94.5819 26.11 97.0819C24.97 99.2419 22.25 98.7619 20.26 99.3419C14.19 87.8719 12.07 74.3419 14.41 61.5819Z" fill="#16C60C"/>
<path d="M60.26 87.7519C58.29 86.0819 57.22 81.0719 60.95 81.1019C63.66 81.0119 62.31 85.5719 64.98 85.5019C67.47 85.9819 67.23 82.6819 68.32 81.3519C70.17 80.4819 72.5 81.7619 71.83 83.9819C71.74 89.5919 63.68 92.0419 60.26 87.7519Z" fill="#16C60C"/>
<path d="M76.53 84.0519C75.67 80.7919 80.16 80.3619 81.87 82.1119C83.71 83.6219 85.45 85.6519 88.05 85.6019C90.02 85.5419 90.26 88.1419 89.41 89.4319C86.31 91.1019 83.82 88.2019 81.63 86.4519C80.21 84.9719 77.5 86.2219 76.53 84.0519Z" fill="#16C60C"/>
<path d="M79.49 90.492C80.5 89.972 81.51 89.972 82.52 90.482C83.13 91.632 83.47 92.892 83.92 94.112C85.91 94.512 88.21 94.662 89.39 96.612C90.31 98.962 89.75 101.582 89.85 104.052C89.78 107.482 85.47 108.872 85.37 112.352C83.24 112.962 81.87 110.712 80.32 109.682C76.93 105.962 69.94 110.212 67.56 105.072C66.85 100.972 69.27 96.662 73.14 95.142C74.64 94.272 76.49 94.782 78.05 94.112C78.49 92.892 78.86 91.632 79.49 90.492Z" fill="#16C60C"/>
<path d="M98.3483 108.272C99.0183 106.332 98.9683 102.792 102.028 103.522C104.848 105.182 103.028 108.522 101.228 110.202C99.3783 111.802 99.0683 114.172 98.4083 116.372C97.1483 117.332 94.6483 116.942 94.5083 115.082C94.0583 112.142 96.8783 110.412 98.3483 108.272Z" fill="#16C60C"/>
<path d="M72.61 76.4819C70.75 73.9019 73.92 70.8019 76.5 72.5819C76.93 74.8819 74.92 76.9719 72.61 76.4819Z" fill="#16C70A"/>
<path d="M29.4 95.302L30.03 94.412C33.57 95.102 29.91 100.062 27.31 98.802C26.21 96.952 29 96.782 29.4 95.302Z" fill="#16C70A"/>
</svg>
