<svg width="20" height="18" viewBox="0 0 24 22" fill="none" xmlns="http://www.w3.org/2000/svg">
<path d="M4.29744 13.5346C3.59924 12.8364 2.90102 12.1382 2.34246 11.44C1.64425 10.4625 0.247831 9.48501 2.20282 8.22824C2.76138 7.80931 2.34246 6.97144 2.20282 6.41287C1.78389 5.15609 1.64425 3.89934 1.64425 1.94435C3.45959 4.59755 5.27493 6.13361 7.92813 6.83182C8.76598 7.1111 9.60383 7.11109 10.5813 7.25073C12.257 7.39037 12.9552 6.5525 13.0949 4.8768C13.5138 0.547902 15.8877 -0.848517 19.658 1.38575C21.0545 2.2236 21.613 0.966836 22.7302 0.827194C23.1491 1.94433 23.8473 3.06146 22.7302 4.31824C22.1716 4.87681 22.3112 5.71467 22.3112 6.55252C22.1716 13.1157 18.122 18.5617 11.8381 20.5167C9.88311 21.2149 7.78848 21.6338 5.55421 21.6338C3.73887 21.4942 2.06317 21.2149 0.666748 19.3996C2.48209 19.1203 4.57673 20.0978 5.8335 18.0032C4.99565 16.7464 2.76138 16.3274 2.62174 14.2328C2.90102 13.5346 3.87852 14.2328 4.29744 13.5346Z" fill="black"/>
</svg>
